<svg xmlns="http://www.w3.org/2000/svg" width="341.35333251953125" height="349.3665771484375"
    viewBox="-177.8963165283203 -218.4231719970703 341.35333251953125 349.3665771484375">
    <title>Neo4j Graph Visualization</title>
    <desc>Created using Neo4j (http://www.neo4j.com/)</desc>
    <g class="layer relationships">
        <g class="relationship" transform="translate(-148.89631076963371 -4.841211878225376) rotate(346.3243474166343)">
            <path class="outline" fill="#A5ABB6" stroke="none"
                d="M 25 0.5 L 46.59631984884781 0.5 L 46.59631984884781 -0.5 L 25 -0.5 Z M 93.48694484884781 0.5 L 115.08326469769563 0.5 L 115.08326469769563 3.5 L 122.08326469769563 0 L 115.08326469769563 -3.5 L 115.08326469769563 -0.5 L 93.48694484884781 -0.5 Z" />
            <text text-anchor="middle" pointer-events="none" font-size="8px" fill="#FFFFFF" x="70.04163234884781" y="3"
                font-family="sans-serif">DIRECTED</text>
        </g>
        <g class="relationship" transform="translate(-75.30977716306042 91.18617425295085) rotate(297.9242844684961)">
            <path class="outline" fill="#A5ABB6" stroke="none"
                d="M 25 0.5 L 47.73778546544473 0.5 L 47.73778546544473 -0.5 L 25 -0.5 Z M 93.30028546544473 0.5 L 116.03807093088946 0.5 L 116.03807093088946 3.5 L 123.03807093088946 0 L 116.03807093088946 -3.5 L 116.03807093088946 -0.5 L 93.30028546544473 -0.5 Z" />
            <text text-anchor="middle" pointer-events="none" font-size="8px" fill="#FFFFFF" x="70.51903546544473" y="3"
                font-family="sans-serif">ACTED_IN</text>
        </g>
        <g class="relationship" transform="translate(134.45699794879334 -104.14432678994015) rotate(515.322303981524)">
            <path class="outline" fill="#A5ABB6" stroke="none"
                d="M 25 0.5 L 49.44172248440212 0.5 L 49.44172248440212 -0.5 L 25 -0.5 Z M 98.11359748440212 0.5 L 122.55531996880424 0.5 L 122.55531996880424 3.5 L 129.55531996880424 0 L 122.55531996880424 -3.5 L 122.55531996880424 -0.5 L 98.11359748440212 -0.5 Z" />
            <text text-anchor="middle" pointer-events="none" font-size="8px" fill="#FFFFFF" x="73.77765998440212" y="3"
                transform="rotate(180 73.77765998440212 0)" font-family="sans-serif">REVIEWED</text>
        </g>
        <g class="relationship" transform="translate(126.21322551175983 11.551811665486625) rotate(201.15919756645098)">
            <path class="outline" fill="#A5ABB6" stroke="none"
                d="M 25 0.5 L 44.59522993230941 0.5 L 44.59522993230941 -0.5 L 25 -0.5 Z M 90.15772993230941 0.5 L 109.75295986461882 0.5 L 109.75295986461882 3.5 L 116.75295986461882 0 L 109.75295986461882 -3.5 L 109.75295986461882 -0.5 L 90.15772993230941 -0.5 Z" />
            <text text-anchor="middle" pointer-events="none" font-size="8px" fill="#FFFFFF" x="67.37647993230941" y="3"
                transform="rotate(180 67.37647993230941 0)" font-family="sans-serif">ACTED_IN</text>
        </g>
        <g class="relationship" transform="translate(37.217545444893375 101.94342767111785) rotate(253.02903571292745)">
            <path class="outline" fill="#A5ABB6" stroke="none"
                d="M 25 0.5 L 47.720750266290935 0.5 L 47.720750266290935 -0.5 L 25 -0.5 Z M 93.28325026629093 0.5 L 116.00400053258187 0.5 L 116.00400053258187 3.5 L 123.00400053258187 0 L 116.00400053258187 -3.5 L 116.00400053258187 -0.5 L 93.28325026629093 -0.5 Z" />
            <text text-anchor="middle" pointer-events="none" font-size="8px" fill="#FFFFFF" x="70.50200026629093" y="3"
                transform="rotate(180 70.50200026629093 0)" font-family="sans-serif">ACTED_IN</text>
        </g>
        <g class="relationship" transform="translate(22.55674933651655 -189.42317237912826) rotate(460.7860850585256)">
            <path class="outline" fill="#A5ABB6" stroke="none"
                d="M 25 0.5 L 48.41508983948711 0.5 L 48.41508983948711 -0.5 L 25 -0.5 Z M 97.08696483948711 0.5 L 120.50205467897422 0.5 L 120.50205467897422 3.5 L 127.50205467897422 0 L 120.50205467897422 -3.5 L 120.50205467897422 -0.5 L 97.08696483948711 -0.5 Z" />
            <text text-anchor="middle" pointer-events="none" font-size="8px" fill="#FFFFFF" x="72.75102733948711" y="3"
                transform="rotate(180 72.75102733948711 0)" font-family="sans-serif">REVIEWED</text>
        </g>
        <g class="relationship"
            transform="translate(-116.29841581150615 -135.08044236277837) rotate(400.87231422432114)">
            <path class="outline" fill="#A5ABB6" stroke="none"
                d="M 25 0.5 L 46.662365083907886 0.5 L 46.662365083907886 -0.5 L 25 -0.5 Z M 92.22486508390789 0.5 L 113.88723016781577 0.5 L 113.88723016781577 3.5 L 120.88723016781577 0 L 113.88723016781577 -3.5 L 113.88723016781577 -0.5 L 92.22486508390789 -0.5 Z" />
            <text text-anchor="middle" pointer-events="none" font-size="8px" fill="#FFFFFF" x="69.44361508390789" y="3"
                font-family="sans-serif">ACTED_IN</text>
        </g>
        <g class="relationship"
            transform="translate(134.45699794879334 -104.14432678994015) rotate(217.31091718133018)">
            <path class="outline" fill="#A5ABB6" stroke="none"
                d="M 25 0.5 L 44.28724327059764 0.5 L 44.28724327059764 -0.5 L 25 -0.5 Z M 89.40443077059764 0.5 L 108.69167404119528 0.5 L 108.69167404119528 3.5 L 115.69167404119528 0 L 108.69167404119528 -3.5 L 108.69167404119528 -0.5 L 89.40443077059764 -0.5 Z" />
            <text text-anchor="middle" pointer-events="none" font-size="8px" fill="#FFFFFF" x="66.84583702059764" y="3"
                transform="rotate(180 66.84583702059764 0)" font-family="sans-serif">FOLLOWS</text>
        </g>
    </g>
    <g class="layer nodes">
        <g class="node" aria-label="graph-node115" transform="translate(-5.982904444472517,-39.615412755769235)">
            <circle class="outline" cx="0" cy="0" r="25" fill="#C990C0" stroke="#b261a5" stroke-width="2px" /><text
                class="caption" text-anchor="middle" pointer-events="none" x="0" y="-5" font-size="10px" fill="#FFFFFF"
                font-family="sans-serif"> The Da</text><text class="caption" text-anchor="middle" pointer-events="none"
                x="0" y="5" font-size="10px" fill="#FFFFFF" font-family="sans-serif"> Vinci</text><text class="caption"
                text-anchor="middle" pointer-events="none" x="0" y="15" font-size="10px" fill="#FFFFFF"
                font-family="sans-serif"> Code</text>
        </g>
        <g class="node" aria-label="graph-node119" transform="translate(-148.89631076963371,-4.841211878225376)">
            <circle class="outline" cx="0" cy="0" r="25" fill="#F79767" stroke="#f36924" stroke-width="2px" /><text
                class="caption" text-anchor="middle" pointer-events="none" x="0" y="0" font-size="10px" fill="#FFFFFF"
                font-family="sans-serif"> Ron</text><text class="caption" text-anchor="middle" pointer-events="none"
                x="0" y="10" font-size="10px" fill="#FFFFFF" font-family="sans-serif"> Howard</text>
        </g>
        <g class="node" aria-label="graph-node116" transform="translate(-75.30977716306042,91.18617425295085)">
            <circle class="outline" cx="0" cy="0" r="25" fill="#F79767" stroke="#f36924" stroke-width="2px" /><text
                class="caption" text-anchor="middle" pointer-events="none" x="0" y="0" font-size="10px" fill="#FFFFFF"
                font-family="sans-serif"> Ian</text><text class="caption" text-anchor="middle" pointer-events="none"
                x="0" y="10" font-size="10px" fill="#FFFFFF" font-family="sans-serif"> McKel…</text>
        </g>
        <g class="node" aria-label="graph-node174" transform="translate(134.45699794879334,-104.14432678994015)">
            <circle class="outline" cx="0" cy="0" r="25" fill="#F79767" stroke="#f36924" stroke-width="2px" /><text
                class="caption" text-anchor="middle" pointer-events="none" x="0" y="0" font-size="10px" fill="#FFFFFF"
                font-family="sans-serif"> James</text><text class="caption" text-anchor="middle" pointer-events="none"
                x="0" y="10" font-size="10px" fill="#FFFFFF" font-family="sans-serif"> Thom…</text>
        </g>
        <g class="node" aria-label="graph-node118" transform="translate(126.21322551175983,11.551811665486625)">
            <circle class="outline" cx="0" cy="0" r="25" fill="#F79767" stroke="#f36924" stroke-width="2px" /><text
                class="caption" text-anchor="middle" pointer-events="none" x="0" y="0" font-size="10px" fill="#FFFFFF"
                font-family="sans-serif"> Paul</text><text class="caption" text-anchor="middle" pointer-events="none"
                x="0" y="10" font-size="10px" fill="#FFFFFF" font-family="sans-serif"> Bettany</text>
        </g>
        <g class="node" aria-label="graph-node117" transform="translate(37.217545444893375,101.94342767111785)">
            <circle class="outline" cx="0" cy="0" r="25" fill="#F79767" stroke="#f36924" stroke-width="2px" /><text
                class="caption" text-anchor="middle" pointer-events="none" x="0" y="0" font-size="10px" fill="#FFFFFF"
                font-family="sans-serif"> Audrey</text><text class="caption" text-anchor="middle" pointer-events="none"
                x="0" y="10" font-size="10px" fill="#FFFFFF" font-family="sans-serif"> Tautou</text>
        </g>
        <g class="node" aria-label="graph-node173" transform="translate(22.55674933651655,-189.42317237912826)">
            <circle class="outline" cx="0" cy="0" r="25" fill="#F79767" stroke="#f36924" stroke-width="2px" /><text
                class="caption" text-anchor="middle" pointer-events="none" x="0" y="0" font-size="10px" fill="#FFFFFF"
                font-family="sans-serif"> Jessica</text><text class="caption" text-anchor="middle" pointer-events="none"
                x="0" y="10" font-size="10px" fill="#FFFFFF" font-family="sans-serif"> Thom…</text>
        </g>
        <g class="node" aria-label="graph-node75" transform="translate(-116.29841581150615,-135.08044236277837)">
            <circle class="outline" cx="0" cy="0" r="25" fill="#F79767" stroke="#f36924" stroke-width="2px" /><text
                class="caption" text-anchor="middle" pointer-events="none" x="0" y="0" font-size="10px" fill="#FFFFFF"
                font-family="sans-serif"> Tom</text><text class="caption" text-anchor="middle" pointer-events="none"
                x="0" y="10" font-size="10px" fill="#FFFFFF" font-family="sans-serif"> Hanks</text>
        </g>
    </g>
</svg>