<svg xmlns="http://www.w3.org/2000/svg" xmlns:xlink="http://www.w3.org/1999/xlink" xmlns:lucid="lucid" width="1174.86" height="685.67"><g transform="translate(21 -231.96850393700785)" lucid:page-tab-id="0_0"><path d="M283.46 257.97c0-3.32 2.7-6 6-6h838.4c3.3 0 6 2.68 6 6v633.67c0 3.3-2.7 6-6 6h-838.4c-3.3 0-6-2.7-6-6z" stroke="#fc9432" stroke-width="2" fill-opacity="0"/><use xlink:href="#a" transform="matrix(1,0,0,1,288.4645669291338,256.9685039370079) translate(338.58641975308643 17.77777777777778)"/><use xlink:href="#b" transform="matrix(1,0,0,1,288.4645669291338,256.9685039370079) translate(393.9567901234568 17.77777777777778)"/><g filter="url(#c)"><path d="M944.88 553.18c0-1.1.9-2 2-2h153.48c1.1 0 2 .9 2 2v74.74c0 1.1-.9 2-2 2H946.88c-1.1 0-2-.9-2-2z" stroke="#fc9432" stroke-width="2" fill-opacity="0"/><use xlink:href="#d" transform="matrix(1,0,0,1,956.8818897637796,563.1811023622047) translate(27.555555555555557 31.52777777777778)"/></g><g filter="url(#c)"><path d="M629.92 553.18c0-1.1.9-2 2-2H785.4c1.1 0 2 .9 2 2v74.74c0 1.1-.9 2-2 2H631.92c-1.1 0-2-.9-2-2z" stroke="#fc9432" stroke-width="2" fill-opacity="0"/><use xlink:href="#e" transform="matrix(1,0,0,1,641.9212598425196,563.1811023622047) translate(-8.771604938271608 31.944444444444443)"/></g><g filter="url(#c)"><path d="M314.96 553.18c0-1.1.9-2 2-2h153.48c1.1 0 2 .9 2 2v74.74c0 1.1-.9 2-2 2H316.96c-1.1 0-2-.9-2-2z" stroke="#fc9432" stroke-width="2" fill-opacity="0"/><use xlink:href="#f" transform="matrix(1,0,0,1,326.9606299212598,563.1811023622047) translate(38.635802469135804 31.52777777777778)"/></g><path d="M515.7 591.05h-25.88v-1h25.88zm112.72 0h-41.76v-1h41.76z" stroke="#fff" stroke-width=".05" fill="#fff"/><path d="M628.92 591.05h-.5v-1h.5z" fill="#fff"/><path d="M628.95 591.08h-.57v-1.05h.57zm-.52-1v.95h.47v-.95z" stroke="#fff" stroke-width=".05" fill="#fff"/><path d="M489.32 595.2l-14.26-4.65 14.26-4.63z" fill="#fff"/><path d="M489.82 595.87l-16.38-5.32 16.38-5.32zm-13.14-5.32l12.14 3.95v-7.9z" stroke="#fff" stroke-width=".05" fill="#fff"/><use xlink:href="#g" transform="matrix(1,0,0,1,515.6996209004081,579.8845144356956) translate(0 14.222222222222223)"/><path d="M1067.14 709.3l-.03 62h-1l.04-62v-19.13h1zm0-40.46h-1v-37.42h1z" stroke="#fff" stroke-width=".05" fill="#fff"/><path d="M1067.14 631.43h-1v-.5h1z" fill="#fff"/><path d="M1067.17 631.46h-1.05v-.56h1.05zm-1-.5v.45h.95v-.45z" stroke="#fff" stroke-width=".05" fill="#fff"/><path d="M1066.6 786.08l-4.63-14.27h9.27z" fill="#fff"/><path d="M1066.6 787.7l-5.3-16.4h10.63zm-3.94-15.4l3.95 12.16 3.96-12.15z" stroke="#fff" stroke-width=".05" fill="#fff"/><use xlink:href="#h" transform="matrix(1,0,0,1,1026.689570732096,668.8397279957777) translate(0 14.222222222222223)"/><path d="M826.96 567.32H788.9v-1h38.06zm100.54 0H888v-1h39.5z" stroke="#fff" stroke-width=".05" fill="#fff"/><path d="M788.9 567.32h-.5v-1h.5z" fill="#fff"/><path d="M788.94 567.34h-.56v-1.05h.56zm-.5-1v.95h.45v-.96z" stroke="#fff" stroke-width=".05" fill="#fff"/><path d="M942.26 566.82L928 571.45v-9.27z" fill="#fff"/><path d="M943.88 566.82l-16.38 5.32V561.5zm-15.38 3.95l12.14-3.95-12.14-3.95z" stroke="#fff" stroke-width=".05" fill="#fff"/><use xlink:href="#i" transform="matrix(1,0,0,1,826.9565295661313,556.1523777087376) translate(0 14.222222222222223)"/><path d="M816.34 615.05H804.8v-1h11.54zm127.04 0h-27.44v-1h27.44z" stroke="#fff" stroke-width=".05" fill="#fff"/><path d="M943.88 615.05h-.5v-1h.5z" fill="#fff"/><path d="M943.9 615.08h-.56v-1.05h.57zm-.5-1v.95h.46v-.95z" stroke="#fff" stroke-width=".05" fill="#fff"/><path d="M804.3 619.2L790 614.54l14.27-4.63z" fill="#fff"/><path d="M804.8 619.87l-16.4-5.32 16.4-5.32zm-13.16-5.32l12.15 3.95v-7.9z" stroke="#fff" stroke-width=".05" fill="#fff"/><use xlink:href="#j" transform="matrix(1,0,0,1,816.3392631673472,603.8842789640689) translate(0 14.222222222222223)"/><g filter="url(#c)"><path d="M0 427.2c0-1.1.9-2 2-2h153.48c1.1 0 2 .9 2 2v74.74c0 1.1-.9 2-2 2H2c-1.1 0-2-.9-2-2z" stroke="#fc9432" stroke-width="2" fill-opacity="0"/><use xlink:href="#k" transform="matrix(1,0,0,1,12,437.19685039370074) translate(27.586419753086417 31.52777777777778)"/></g><path d="M1102.36 858.27c0 4.35-35.25 7.87-78.74 7.87-43.48 0-78.74-3.52-78.74-7.87v-63c0-4.34 35.26-7.87 78.74-7.87 43.5 0 78.74 3.53 78.74 7.88z" stroke="#fc9432" stroke-width="2" fill-opacity="0"/><path d="M1102.36 795.28c0 4.34-35.25 7.87-78.74 7.87-43.48 0-78.74-3.53-78.74-7.87" stroke="#fc9432" stroke-width="2" fill="none"/><use xlink:href="#l" transform="matrix(1,0,0,1,949.8818897637794,808.1496062992126) translate(26.5 31.02777777777778)"/><path d="M985.2 787.05h-1v-51.47h1zm0-77.8v5h-1v-5l-.03-61.94h1z" stroke="#fff" stroke-width=".05" fill="#fff"/><path d="M985.2 787.52l-1 .07v-.56h1z" fill="#fff"/><path d="M985.2 787.54l-1.04.08v-.6h1.05zm-1-.47v.5l.96-.08v-.43z" stroke="#fff" stroke-width=".05" fill="#fff"/><path d="M989.3 646.8h-9.27l4.64-14.26z" fill="#fff"/><path d="M990 647.3h-10.66l5.33-16.38zm-9.28-1h7.9l-3.95-12.14z" stroke="#fff" stroke-width=".05" fill="#fff"/><use xlink:href="#j" transform="matrix(1,0,0,1,934.8831362780836,714.2454663444879) translate(0 14.222222222222223)"/><g filter="url(#c)"><path d="M314.96 316.96c0-1.1.9-2 2-2h153.48c1.1 0 2 .9 2 2v74.74c0 1.1-.9 2-2 2H316.96c-1.1 0-2-.9-2-2z" stroke="#fc9432" stroke-width="2" fill-opacity="0"/><use xlink:href="#m" transform="matrix(1,0,0,1,319.9606299212598,319.9606299212598) translate(0.23456790123456983 39.34027777777778)"/><use xlink:href="#n" transform="matrix(1,0,0,1,319.9606299212598,319.9606299212598) translate(56.962962962962955 39.34027777777778)"/></g><g filter="url(#o)"><path d="M629.92 316.96c0-1.1.9-2 2-2H785.4c1.1 0 2 .9 2 2v74.74c0 1.1-.9 2-2 2H631.92c-1.1 0-2-.9-2-2z" stroke="#fc9432" stroke-width="2" fill-opacity="0"/><use xlink:href="#p" transform="matrix(1,0,0,1,634.9212598425195,319.9606299212598) translate(27.796296296296305 39.34027777777778)"/></g><path d="M236.72 458.63l-.87 3.22-2.34 2.35-3.2.87h-71.32v-1h71.17l2.84-.77 1.95-1.96.77-2.84v-38.38h1zm60.86-103.8h-55.3l-2.83.77-1.96 1.96-.78 2.84v38.38h-1v-38.52l.87-3.22 2.33-2.34 3.22-.87h55.43z" stroke="#fff" stroke-width=".05" fill="#fff"/><path d="M159 465.07h-.52v-1h.5z" fill="#fff"/><path d="M159.02 465.1h-.56v-1.06h.56zm-.5-1v.94h.45v-.95z" stroke="#fff" stroke-width=".05" fill="#fff"/><path d="M312.34 354.33l-14.26 4.64v-9.27z" fill="#fff"/><path d="M313.96 354.33l-16.38 5.32V349zm-15.38 3.95l12.14-3.95-12.14-3.95z" stroke="#fff" stroke-width=".05" fill="#fff"/><use xlink:href="#q" transform="matrix(1,0,0,1,187.40565764581507,398.7821522309711) translate(0 14.222222222222223)"/><path d="M499.65 354.83h-25.7v-1h25.7zm112.9 0h-9.84v-1h9.84z" stroke="#fff" stroke-width=".05" fill="#fff"/><path d="M473.95 354.83h-.5v-1h.5z" fill="#fff"/><path d="M473.98 354.86h-.56v-1.05h.56zm-.5-1v.95h.45v-.94z" stroke="#fff" stroke-width=".05" fill="#fff"/><path d="M627.3 354.33l-14.26 4.64v-9.27z" fill="#fff"/><path d="M628.92 354.33l-16.38 5.32V349zm-15.38 3.95l12.14-3.95-12.14-3.95z" stroke="#fff" stroke-width=".05" fill="#fff"/><use xlink:href="#r" transform="matrix(1,0,0,1,499.65023818435867,343.6640419947506) translate(0 14.222222222222223)"/><path d="M709.16 533.8h-1v-68.53h1zm0-89.86h-1V395.2h1z" stroke="#fff" stroke-width=".05" fill="#fff"/><path d="M709.16 395.2h-1v-.5h1z" fill="#fff"/><path d="M709.2 395.24h-1.06v-.56h1.05zm-1-.5v.45h.94v-.47z" stroke="#fff" stroke-width=".05" fill="#fff"/><path d="M708.66 548.56l-4.63-14.26h9.27z" fill="#fff"/><path d="M708.66 550.18l-5.32-16.38h10.64zm-3.95-15.38l3.96 12.15 3.95-12.15z" stroke="#fff" stroke-width=".05" fill="#fff"/><use xlink:href="#s" transform="matrix(1,0,0,1,677.6243802857974,443.94141025424034) translate(0 14.222222222222223)"/><path d="M236.72 584.48l.77 2.84 1.95 1.96 2.84.77h71.16v1h-71.3l-3.23-.87-2.34-2.34-.88-3.22v-53.55h1zm-3.2-101.93l2.33 2.34.87 3.2v21.63h-1v-21.5l-.77-2.82-1.96-1.96-2.85-.76h-55.3v-1h55.44z" stroke="#fff" stroke-width=".05" fill="#fff"/><path d="M313.96 591.05h-.5v-1h.5z" fill="#fff"/><path d="M314 591.08h-.58v-1.05h.57zm-.53-1v.95h.47v-.95z" stroke="#fff" stroke-width=".05" fill="#fff"/><path d="M174.36 486.8l-14.26-4.62 14.26-4.64z" fill="#fff"/><path d="M174.86 487.5l-16.38-5.32 16.38-5.33zm-13.14-5.32l12.14 3.94v-7.9z" stroke="#fff" stroke-width=".05" fill="#fff"/><use xlink:href="#t" transform="matrix(1,0,0,1,192.66491690507434,509.7338860844632) translate(0 14.222222222222223)"/><path d="M283.46 843.64c0-3.32 2.7-6 6-6h228c3.32 0 6 2.68 6 6v48c0 3.3-2.68 6-6 6h-228c-3.3 0-6-2.7-6-6z" stroke="#000" stroke-opacity="0" fill="#fff" fill-opacity="0"/><use xlink:href="#u" transform="matrix(1,0,0,1,288.4645669291338,842.6377952755905) translate(23.796296296296305 30.27777777777778)"/><use xlink:href="#v" transform="matrix(1,0,0,1,288.4645669291338,842.6377952755905) translate(75.58641975308643 30.27777777777778)"/><use xlink:href="#w" transform="matrix(1,0,0,1,288.4645669291338,842.6377952755905) translate(156.820987654321 30.27777777777778)"/><defs><path fill="#fff" d="M233-177c-1 41-23 64-60 70L243 0h-38l-65-103H63V0H30v-248c88 3 205-21 203 71zM63-129c60-2 137 13 137-47 0-61-80-42-137-45v92" id="x"/><path fill="#fff" d="M141-36C126-15 110 5 73 4 37 3 15-17 15-53c-1-64 63-63 125-63 3-35-9-54-41-54-24 1-41 7-42 31l-33-3c5-37 33-52 76-52 45 0 72 20 72 64v82c-1 20 7 32 28 27v20c-31 9-61-2-59-35zM48-53c0 20 12 33 32 33 41-3 63-29 60-74-43 2-92-5-92 41" id="y"/><path fill="#fff" d="M24-231v-30h32v30H24zM24 0v-190h32V0H24" id="z"/><path fill="#fff" d="M24 0v-261h32V0H24" id="A"/><path fill="#fff" d="M135-143c-3-34-86-38-87 0 15 53 115 12 119 90S17 21 10-45l28-5c4 36 97 45 98 0-10-56-113-15-118-90-4-57 82-63 122-42 12 7 21 19 24 35" id="B"/><g id="a"><use transform="matrix(0.06172839506172839,0,0,0.06172839506172839,0,0)" xlink:href="#x"/><use transform="matrix(0.06172839506172839,0,0,0.06172839506172839,15.987654320987653,0)" xlink:href="#y"/><use transform="matrix(0.06172839506172839,0,0,0.06172839506172839,28.333333333333332,0)" xlink:href="#z"/><use transform="matrix(0.06172839506172839,0,0,0.06172839506172839,33.20987654320987,0)" xlink:href="#A"/><use transform="matrix(0.06172839506172839,0,0,0.06172839506172839,38.08641975308642,0)" xlink:href="#B"/></g><path fill="#fff" d="M205 0l-28-72H64L36 0H1l101-248h38L239 0h-34zm-38-99l-47-123c-12 45-31 82-46 123h93" id="C"/><path fill="#fff" d="M115-194c55 1 70 41 70 98S169 2 115 4C84 4 66-9 55-30l1 105H24l-1-265h31l2 30c10-21 28-34 59-34zm-8 174c40 0 45-34 45-75s-6-73-45-74c-42 0-51 32-51 76 0 43 10 73 51 73" id="D"/><path fill="#fff" d="M96-169c-40 0-48 33-48 73s9 75 48 75c24 0 41-14 43-38l32 2c-6 37-31 61-74 61-59 0-76-41-82-99-10-93 101-131 147-64 4 7 5 14 7 22l-32 3c-4-21-16-35-41-35" id="E"/><path fill="#fff" d="M59-47c-2 24 18 29 38 22v24C64 9 27 4 27-40v-127H5v-23h24l9-43h21v43h35v23H59v120" id="F"/><path fill="#fff" d="M100-194c62-1 85 37 85 99 1 63-27 99-86 99S16-35 15-95c0-66 28-99 85-99zM99-20c44 1 53-31 53-75 0-43-8-75-51-75s-53 32-53 75 10 74 51 75" id="G"/><path fill="#fff" d="M117-194c89-4 53 116 60 194h-32v-121c0-31-8-49-39-48C34-167 62-67 57 0H25l-1-190h30c1 10-1 24 2 32 11-22 29-35 61-36" id="H"/><g id="b"><use transform="matrix(0.06172839506172839,0,0,0.06172839506172839,0,0)" xlink:href="#C"/><use transform="matrix(0.06172839506172839,0,0,0.06172839506172839,14.814814814814813,0)" xlink:href="#D"/><use transform="matrix(0.06172839506172839,0,0,0.06172839506172839,27.160493827160494,0)" xlink:href="#D"/><use transform="matrix(0.06172839506172839,0,0,0.06172839506172839,39.50617283950617,0)" xlink:href="#A"/><use transform="matrix(0.06172839506172839,0,0,0.06172839506172839,44.382716049382715,0)" xlink:href="#z"/><use transform="matrix(0.06172839506172839,0,0,0.06172839506172839,49.25925925925926,0)" xlink:href="#E"/><use transform="matrix(0.06172839506172839,0,0,0.06172839506172839,60.37037037037037,0)" xlink:href="#y"/><use transform="matrix(0.06172839506172839,0,0,0.06172839506172839,72.71604938271605,0)" xlink:href="#F"/><use transform="matrix(0.06172839506172839,0,0,0.06172839506172839,78.88888888888889,0)" xlink:href="#z"/><use transform="matrix(0.06172839506172839,0,0,0.06172839506172839,83.76543209876543,0)" xlink:href="#G"/><use transform="matrix(0.06172839506172839,0,0,0.06172839506172839,96.11111111111111,0)" xlink:href="#H"/></g><path fill="#ced4db" d="M240 0l2-218c-23 76-54 145-80 218h-23L58-218 59 0H30v-248h44l77 211c21-75 51-140 76-211h43V0h-30" id="I"/><path fill="#ced4db" d="M140-251c81 0 123 46 123 126C263-46 219 4 140 4 59 4 17-45 17-125s42-126 123-126zm0 227c63 0 89-41 89-101s-29-99-89-99c-61 0-89 39-89 99S79-25 140-24" id="J"/><path fill="#ced4db" d="M30-248c118-7 216 8 213 122C240-48 200 0 122 0H30v-248zM63-27c89 8 146-16 146-99s-60-101-146-95v194" id="K"/><path fill="#ced4db" d="M30 0v-248h187v28H63v79h144v27H63v87h162V0H30" id="L"/><path fill="#ced4db" d="M30 0v-248h33v221h125V0H30" id="M"/><g id="d"><use transform="matrix(0.06172839506172839,0,0,0.06172839506172839,0,0)" xlink:href="#I"/><use transform="matrix(0.06172839506172839,0,0,0.06172839506172839,18.456790123456788,0)" xlink:href="#J"/><use transform="matrix(0.06172839506172839,0,0,0.06172839506172839,35.74074074074073,0)" xlink:href="#K"/><use transform="matrix(0.06172839506172839,0,0,0.06172839506172839,51.728395061728385,0)" xlink:href="#L"/><use transform="matrix(0.06172839506172839,0,0,0.06172839506172839,66.5432098765432,0)" xlink:href="#M"/></g><filter id="c" filterUnits="objectBoundingBox" x="-.06" y="-.05" width="1.13" height="1.25"><feOffset result="offOut" in="SourceAlpha" dy="6"/><feGaussianBlur result="blurOut" in="offOut" stdDeviation="5"/><feColorMatrix result="colorOut" in="blurOut" values="0 0 0 0 0 0 0 0 0 0 0 0 0 0 0 0 0 0 0.5019607843137255 0"/><feBlend in="SourceGraphic" in2="colorOut"/></filter><path fill="#ced4db" d="M212-179c-10-28-35-45-73-45-59 0-87 40-87 99 0 60 29 101 89 101 43 0 62-24 78-52l27 14C228-24 195 4 139 4 59 4 22-46 18-125c-6-104 99-153 187-111 19 9 31 26 39 46" id="N"/><path fill="#ced4db" d="M190 0L58-211 59 0H30v-248h39L202-35l-2-213h31V0h-41" id="O"/><path fill="#ced4db" d="M127-220V0H93v-220H8v-28h204v28h-85" id="P"/><path fill="#ced4db" d="M233-177c-1 41-23 64-60 70L243 0h-38l-65-103H63V0H30v-248c88 3 205-21 203 71zM63-129c60-2 137 13 137-47 0-61-80-42-137-45v92" id="Q"/><g id="e"><use transform="matrix(0.06172839506172839,0,0,0.06172839506172839,0,0)" xlink:href="#N"/><use transform="matrix(0.06172839506172839,0,0,0.06172839506172839,15.987654320987653,0)" xlink:href="#J"/><use transform="matrix(0.06172839506172839,0,0,0.06172839506172839,33.2716049382716,0)" xlink:href="#O"/><use transform="matrix(0.06172839506172839,0,0,0.06172839506172839,49.25925925925925,0)" xlink:href="#P"/><use transform="matrix(0.06172839506172839,0,0,0.06172839506172839,62.77777777777777,0)" xlink:href="#Q"/><use transform="matrix(0.06172839506172839,0,0,0.06172839506172839,78.76543209876543,0)" xlink:href="#J"/><use transform="matrix(0.06172839506172839,0,0,0.06172839506172839,96.04938271604938,0)" xlink:href="#M"/><use transform="matrix(0.06172839506172839,0,0,0.06172839506172839,108.39506172839506,0)" xlink:href="#M"/><use transform="matrix(0.06172839506172839,0,0,0.06172839506172839,120.74074074074075,0)" xlink:href="#L"/><use transform="matrix(0.06172839506172839,0,0,0.06172839506172839,135.55555555555557,0)" xlink:href="#Q"/></g><path fill="#ced4db" d="M137 0h-34L2-248h35l83 218 83-218h36" id="R"/><path fill="#ced4db" d="M33 0v-248h34V0H33" id="S"/><path fill="#ced4db" d="M266 0h-40l-56-210L115 0H75L2-248h35L96-30l15-64 43-154h32l59 218 59-218h35" id="T"/><g id="f"><use transform="matrix(0.06172839506172839,0,0,0.06172839506172839,0,0)" xlink:href="#R"/><use transform="matrix(0.06172839506172839,0,0,0.06172839506172839,14.814814814814813,0)" xlink:href="#S"/><use transform="matrix(0.06172839506172839,0,0,0.06172839506172839,20.98765432098765,0)" xlink:href="#L"/><use transform="matrix(0.06172839506172839,0,0,0.06172839506172839,35.80246913580247,0)" xlink:href="#T"/></g><path fill="#fff" d="M240-174c0 40-23 61-54 70L253 0h-59l-57-94H76V0H24v-248c93 4 217-23 216 74zM76-134c48-2 112 12 112-38 0-48-66-32-112-35v73" id="U"/><path fill="#fff" d="M185-48c-13 30-37 53-82 52C43 2 14-33 14-96s30-98 90-98c62 0 83 45 84 108H66c0 31 8 55 39 56 18 0 30-7 34-22zm-45-69c5-46-57-63-70-21-2 6-4 13-4 21h74" id="V"/><path fill="#fff" d="M135-194c87-1 58 113 63 194h-50c-7-57 23-157-34-157-59 0-34 97-39 157H25l-1-190h47c2 12-1 28 3 38 12-26 28-41 61-42" id="W"/><path fill="#fff" d="M88-194c31-1 46 15 58 34l-1-101h50l1 261h-48c-2-10 0-23-3-31C134-8 116 4 84 4 32 4 16-41 15-95c0-56 19-97 73-99zm17 164c33 0 40-30 41-66 1-37-9-64-41-64s-38 30-39 65c0 43 13 65 39 65" id="X"/><path fill="#fff" d="M135-150c-39-12-60 13-60 57V0H25l-1-190h47c2 13-1 29 3 40 6-28 27-53 61-41v41" id="Y"/><path fill="#fff" d="M137-138c1-29-70-34-71-4 15 46 118 7 119 86 1 83-164 76-172 9l43-7c4 19 20 25 44 25 33 8 57-30 24-41C81-84 22-81 20-136c-2-80 154-74 161-7" id="Z"/><g id="g"><use transform="matrix(0.04938271604938272,0,0,0.04938271604938272,0,0)" xlink:href="#U"/><use transform="matrix(0.04938271604938272,0,0,0.04938271604938272,12.790123456790125,0)" xlink:href="#V"/><use transform="matrix(0.04938271604938272,0,0,0.04938271604938272,22.66666666666667,0)" xlink:href="#W"/><use transform="matrix(0.04938271604938272,0,0,0.04938271604938272,33.48148148148149,0)" xlink:href="#X"/><use transform="matrix(0.04938271604938272,0,0,0.04938271604938272,44.296296296296305,0)" xlink:href="#V"/><use transform="matrix(0.04938271604938272,0,0,0.04938271604938272,54.17283950617284,0)" xlink:href="#Y"/><use transform="matrix(0.04938271604938272,0,0,0.04938271604938272,61.08641975308644,0)" xlink:href="#Z"/></g><path fill="#fff" d="M140-251c80 0 125 45 125 126 0 70-33 111-92 124 6 28 34 38 68 31l-1 36C177 83 129 55 120 2 51-6 15-50 15-125c0-81 44-126 125-126zm-1 214c52 0 73-35 73-88 0-50-21-86-72-86-52 0-73 35-73 86s22 88 72 88" id="aa"/><path fill="#fff" d="M238-95c0 69-44 99-111 99C63 4 22-25 22-93v-155h51v151c-1 38 19 59 55 60 90 1 49-130 58-211h52v153" id="ab"/><path fill="#fff" d="M24 0v-248h195v40H76v63h132v40H76v65h150V0H24" id="ac"/><path fill="#fff" d="M24 0v-248h52V0H24" id="ad"/><path fill="#fff" d="M169-182c-1-43-94-46-97-3 18 66 151 10 154 114 3 95-165 93-204 36-6-8-10-19-12-30l50-8c3 46 112 56 116 5-17-69-150-10-154-114-4-87 153-88 188-35 5 8 8 18 10 28" id="ae"/><g id="h"><use transform="matrix(0.04938271604938272,0,0,0.04938271604938272,0,0)" xlink:href="#aa"/><use transform="matrix(0.04938271604938272,0,0,0.04938271604938272,13.827160493827162,0)" xlink:href="#ab"/><use transform="matrix(0.04938271604938272,0,0,0.04938271604938272,26.617283950617285,0)" xlink:href="#ac"/><use transform="matrix(0.04938271604938272,0,0,0.04938271604938272,38.46913580246914,0)" xlink:href="#U"/><use transform="matrix(0.04938271604938272,0,0,0.04938271604938272,51.25925925925927,0)" xlink:href="#ad"/><use transform="matrix(0.04938271604938272,0,0,0.04938271604938272,56.19753086419754,0)" xlink:href="#ac"/><use transform="matrix(0.04938271604938272,0,0,0.04938271604938272,68.0493827160494,0)" xlink:href="#ae"/></g><path fill="#fff" d="M67-125c0 53 21 87 73 88 37 1 54-22 65-47l45 17C233-25 199 4 140 4 58 4 20-42 15-125 8-235 124-281 211-232c18 10 29 29 36 50l-46 12c-8-25-30-41-62-41-52 0-71 34-72 86" id="af"/><path fill="#fff" d="M24-248c120-7 223 5 221 122C244-46 201 0 124 0H24v-248zM76-40c74 7 117-18 117-86 0-67-45-88-117-82v168" id="ag"/><g id="i"><use transform="matrix(0.04938271604938272,0,0,0.04938271604938272,0,0)" xlink:href="#af"/><use transform="matrix(0.04938271604938272,0,0,0.04938271604938272,12.790123456790125,0)" xlink:href="#U"/><use transform="matrix(0.04938271604938272,0,0,0.04938271604938272,25.58024691358025,0)" xlink:href="#ab"/><use transform="matrix(0.04938271604938272,0,0,0.04938271604938272,38.370370370370374,0)" xlink:href="#ag"/><use transform="matrix(0.04938271604938272,0,0,0.04938271604938272,51.1604938271605,0)" xlink:href="#Z"/></g><path fill="#fff" d="M24-248c93 1 206-16 204 79-1 75-69 88-152 82V0H24v-248zm52 121c47 0 100 7 100-41 0-47-54-39-100-39v80" id="ah"/><path fill="#fff" d="M140-251c80 0 125 45 125 126S219 4 139 4C58 4 15-44 15-125s44-126 125-126zm-1 214c52 0 73-35 73-88 0-50-21-86-72-86-52 0-73 35-73 86s22 88 72 88" id="ai"/><path fill="#fff" d="M175 0L67-191c6 58 2 128 3 191H24v-248h59L193-55c-6-58-2-129-3-193h46V0h-61" id="aj"/><g id="j"><use transform="matrix(0.04938271604938272,0,0,0.04938271604938272,0,0)" xlink:href="#U"/><use transform="matrix(0.04938271604938272,0,0,0.04938271604938272,12.790123456790125,0)" xlink:href="#ac"/><use transform="matrix(0.04938271604938272,0,0,0.04938271604938272,24.641975308641978,0)" xlink:href="#ae"/><use transform="matrix(0.04938271604938272,0,0,0.04938271604938272,36.49382716049383,0)" xlink:href="#ah"/><use transform="matrix(0.04938271604938272,0,0,0.04938271604938272,48.345679012345684,0)" xlink:href="#ai"/><use transform="matrix(0.04938271604938272,0,0,0.04938271604938272,62.17283950617284,0)" xlink:href="#aj"/><use transform="matrix(0.04938271604938272,0,0,0.04938271604938272,74.96296296296298,0)" xlink:href="#ag"/><use transform="matrix(0.04938271604938272,0,0,0.04938271604938272,87.7530864197531,0)" xlink:href="#ae"/></g><g id="k"><use transform="matrix(0.06172839506172839,0,0,0.06172839506172839,0,0)" xlink:href="#N"/><use transform="matrix(0.06172839506172839,0,0,0.06172839506172839,15.987654320987653,0)" xlink:href="#M"/><use transform="matrix(0.06172839506172839,0,0,0.06172839506172839,28.333333333333332,0)" xlink:href="#S"/><use transform="matrix(0.06172839506172839,0,0,0.06172839506172839,34.50617283950617,0)" xlink:href="#L"/><use transform="matrix(0.06172839506172839,0,0,0.06172839506172839,49.32098765432099,0)" xlink:href="#O"/><use transform="matrix(0.06172839506172839,0,0,0.06172839506172839,65.30864197530865,0)" xlink:href="#P"/></g><path fill="#ced4db" d="M141-36C126-15 110 5 73 4 37 3 15-17 15-53c-1-64 63-63 125-63 3-35-9-54-41-54-24 1-41 7-42 31l-33-3c5-37 33-52 76-52 45 0 72 20 72 64v82c-1 20 7 32 28 27v20c-31 9-61-2-59-35zM48-53c0 20 12 33 32 33 41-3 63-29 60-74-43 2-92-5-92 41" id="ak"/><path fill="#ced4db" d="M59-47c-2 24 18 29 38 22v24C64 9 27 4 27-40v-127H5v-23h24l9-43h21v43h35v23H59v120" id="al"/><path fill="#ced4db" d="M115-194c53 0 69 39 70 98 0 66-23 100-70 100C84 3 66-7 56-30L54 0H23l1-261h32v101c10-23 28-34 59-34zm-8 174c40 0 45-34 45-75 0-40-5-75-45-74-42 0-51 32-51 76 0 43 10 73 51 73" id="am"/><path fill="#ced4db" d="M135-143c-3-34-86-38-87 0 15 53 115 12 119 90S17 21 10-45l28-5c4 36 97 45 98 0-10-56-113-15-118-90-4-57 82-63 122-42 12 7 21 19 24 35" id="an"/><path fill="#ced4db" d="M100-194c63 0 86 42 84 106H49c0 40 14 67 53 68 26 1 43-12 49-29l28 8c-11 28-37 45-77 45C44 4 14-33 15-96c1-61 26-98 85-98zm52 81c6-60-76-77-97-28-3 7-6 17-6 28h103" id="ao"/><g id="l"><use transform="matrix(0.06172839506172839,0,0,0.06172839506172839,0,0)" xlink:href="#K"/><use transform="matrix(0.06172839506172839,0,0,0.06172839506172839,15.987654320987653,0)" xlink:href="#ak"/><use transform="matrix(0.06172839506172839,0,0,0.06172839506172839,28.333333333333332,0)" xlink:href="#al"/><use transform="matrix(0.06172839506172839,0,0,0.06172839506172839,34.50617283950617,0)" xlink:href="#ak"/><use transform="matrix(0.06172839506172839,0,0,0.06172839506172839,46.85185185185185,0)" xlink:href="#am"/><use transform="matrix(0.06172839506172839,0,0,0.06172839506172839,59.197530864197525,0)" xlink:href="#ak"/><use transform="matrix(0.06172839506172839,0,0,0.06172839506172839,71.5432098765432,0)" xlink:href="#an"/><use transform="matrix(0.06172839506172839,0,0,0.06172839506172839,82.65432098765432,0)" xlink:href="#ao"/></g><path fill="#ced4db" d="M160-131c35 5 61 23 61 61C221 17 115-2 30 0v-248c76 3 177-17 177 60 0 33-19 50-47 57zm-97-11c50-1 110 9 110-42 0-47-63-36-110-37v79zm0 115c55-2 124 14 124-45 0-56-70-42-124-44v89" id="ap"/><g id="m"><use transform="matrix(0.06172839506172839,0,0,0.06172839506172839,0,0)" xlink:href="#T"/><use transform="matrix(0.06172839506172839,0,0,0.06172839506172839,20.925925925925924,0)" xlink:href="#L"/><use transform="matrix(0.06172839506172839,0,0,0.06172839506172839,35.74074074074073,0)" xlink:href="#ap"/></g><path fill="#ced4db" d="M185-189c-5-48-123-54-124 2 14 75 158 14 163 119 3 78-121 87-175 55-17-10-28-26-33-46l33-7c5 56 141 63 141-1 0-78-155-14-162-118-5-82 145-84 179-34 5 7 8 16 11 25" id="aq"/><g id="n"><use transform="matrix(0.06172839506172839,0,0,0.06172839506172839,0,0)" xlink:href="#aq"/><use transform="matrix(0.06172839506172839,0,0,0.06172839506172839,14.814814814814813,0)" xlink:href="#L"/><use transform="matrix(0.06172839506172839,0,0,0.06172839506172839,29.629629629629626,0)" xlink:href="#Q"/><use transform="matrix(0.06172839506172839,0,0,0.06172839506172839,45.18518518518518,0)" xlink:href="#R"/><use transform="matrix(0.06172839506172839,0,0,0.06172839506172839,60,0)" xlink:href="#L"/><use transform="matrix(0.06172839506172839,0,0,0.06172839506172839,74.81481481481481,0)" xlink:href="#Q"/></g><path fill="#ced4db" d="M232-93c-1 65-40 97-104 97C67 4 28-28 28-90v-158h33c8 89-33 224 67 224 102 0 64-133 71-224h33v155" id="ar"/><g id="p"><use transform="matrix(0.06172839506172839,0,0,0.06172839506172839,0,0)" xlink:href="#Q"/><use transform="matrix(0.06172839506172839,0,0,0.06172839506172839,15.987654320987653,0)" xlink:href="#J"/><use transform="matrix(0.06172839506172839,0,0,0.06172839506172839,33.2716049382716,0)" xlink:href="#ar"/><use transform="matrix(0.06172839506172839,0,0,0.06172839506172839,49.25925925925925,0)" xlink:href="#P"/><use transform="matrix(0.06172839506172839,0,0,0.06172839506172839,62.77777777777777,0)" xlink:href="#L"/><use transform="matrix(0.06172839506172839,0,0,0.06172839506172839,77.59259259259258,0)" xlink:href="#aq"/></g><filter id="o" filterUnits="objectBoundingBox" x="-.06" y="-.05" width="1.13" height="1.25"><feOffset result="offOut" in="SourceAlpha" dy="6"/><feGaussianBlur result="blurOut" in="offOut" stdDeviation="5"/><feColorMatrix result="colorOut" in="blurOut" values="0 0 0 0 0 0 0 0 0 0 0 0 0 0 0 0 0 0 0.5019607843137255 0"/><feBlend in="SourceGraphic" in2="colorOut"/></filter><path fill="#fff" d="M136-208V0H84v-208H4v-40h212v40h-80" id="as"/><g id="q"><use transform="matrix(0.04938271604938272,0,0,0.04938271604938272,0,0)" xlink:href="#U"/><use transform="matrix(0.04938271604938272,0,0,0.04938271604938272,12.790123456790125,0)" xlink:href="#ac"/><use transform="matrix(0.04938271604938272,0,0,0.04938271604938272,24.641975308641978,0)" xlink:href="#aa"/><use transform="matrix(0.04938271604938272,0,0,0.04938271604938272,38.46913580246914,0)" xlink:href="#ab"/><use transform="matrix(0.04938271604938272,0,0,0.04938271604938272,51.25925925925927,0)" xlink:href="#ac"/><use transform="matrix(0.04938271604938272,0,0,0.04938271604938272,63.111111111111114,0)" xlink:href="#ae"/><use transform="matrix(0.04938271604938272,0,0,0.04938271604938272,74.96296296296298,0)" xlink:href="#as"/><use transform="matrix(0.04938271604938272,0,0,0.04938271604938272,85.77777777777779,0)" xlink:href="#ae"/></g><path fill="#fff" d="M76-208v77h127v40H76V0H24v-248h183v40H76" id="at"/><path fill="#fff" d="M275 0h-61l-44-196L126 0H64L0-248h53L97-49l45-199h58l43 199 44-199h52" id="au"/><path fill="#fff" d="M199 0l-22-63H83L61 0H9l90-248h61L250 0h-51zm-33-102l-36-108c-10 38-24 72-36 108h72" id="av"/><g id="r"><use transform="matrix(0.04938271604938272,0,0,0.04938271604938272,0,0)" xlink:href="#at"/><use transform="matrix(0.04938271604938272,0,0,0.04938271604938272,10.814814814814815,0)" xlink:href="#ai"/><use transform="matrix(0.04938271604938272,0,0,0.04938271604938272,24.641975308641975,0)" xlink:href="#U"/><use transform="matrix(0.04938271604938272,0,0,0.04938271604938272,37.08641975308642,0)" xlink:href="#au"/><use transform="matrix(0.04938271604938272,0,0,0.04938271604938272,52.83950617283951,0)" xlink:href="#av"/><use transform="matrix(0.04938271604938272,0,0,0.04938271604938272,65.62962962962963,0)" xlink:href="#U"/><use transform="matrix(0.04938271604938272,0,0,0.04938271604938272,78.41975308641976,0)" xlink:href="#ag"/><use transform="matrix(0.04938271604938272,0,0,0.04938271604938272,91.20987654320989,0)" xlink:href="#ae"/></g><path fill="#fff" d="M24 0v-248h52v208h133V0H24" id="aw"/><g id="s"><use transform="matrix(0.04938271604938272,0,0,0.04938271604938272,0,0)" xlink:href="#aw"/><use transform="matrix(0.04938271604938272,0,0,0.04938271604938272,10.814814814814815,0)" xlink:href="#ai"/><use transform="matrix(0.04938271604938272,0,0,0.04938271604938272,24.641975308641975,0)" xlink:href="#av"/><use transform="matrix(0.04938271604938272,0,0,0.04938271604938272,37.4320987654321,0)" xlink:href="#ag"/><use transform="matrix(0.04938271604938272,0,0,0.04938271604938272,50.22222222222223,0)" xlink:href="#ae"/></g><path fill="#fff" d="M146-102V0H94v-102L6-248h54l60 105 60-105h54" id="ax"/><g id="t"><use transform="matrix(0.04938271604938272,0,0,0.04938271604938272,0,0)" xlink:href="#ag"/><use transform="matrix(0.04938271604938272,0,0,0.04938271604938272,12.790123456790125,0)" xlink:href="#ad"/><use transform="matrix(0.04938271604938272,0,0,0.04938271604938272,17.7283950617284,0)" xlink:href="#ae"/><use transform="matrix(0.04938271604938272,0,0,0.04938271604938272,29.580246913580254,0)" xlink:href="#ah"/><use transform="matrix(0.04938271604938272,0,0,0.04938271604938272,41.43209876543211,0)" xlink:href="#aw"/><use transform="matrix(0.04938271604938272,0,0,0.04938271604938272,52.24691358024693,0)" xlink:href="#av"/><use transform="matrix(0.04938271604938272,0,0,0.04938271604938272,63.407407407407426,0)" xlink:href="#ax"/><use transform="matrix(0.04938271604938272,0,0,0.04938271604938272,75.25925925925927,0)" xlink:href="#ae"/></g><path fill="#3a414a" d="M185-189c-5-48-123-54-124 2 14 75 158 14 163 119 3 78-121 87-175 55-17-10-28-26-33-46l33-7c5 56 141 63 141-1 0-78-155-14-162-118-5-82 145-84 179-34 5 7 8 16 11 25" id="ay"/><path fill="#3a414a" d="M141-36C126-15 110 5 73 4 37 3 15-17 15-53c-1-64 63-63 125-63 3-35-9-54-41-54-24 1-41 7-42 31l-33-3c5-37 33-52 76-52 45 0 72 20 72 64v82c-1 20 7 32 28 27v20c-31 9-61-2-59-35zM48-53c0 20 12 33 32 33 41-3 63-29 60-74-43 2-92-5-92 41" id="az"/><path fill="#3a414a" d="M210-169c-67 3-38 105-44 169h-31v-121c0-29-5-50-35-48C34-165 62-65 56 0H25l-1-190h30c1 10-1 24 2 32 10-44 99-50 107 0 11-21 27-35 58-36 85-2 47 119 55 194h-31v-121c0-29-5-49-35-48" id="aA"/><g id="u"><use transform="matrix(0.06172839506172839,0,0,0.06172839506172839,0,0)" xlink:href="#ay"/><use transform="matrix(0.06172839506172839,0,0,0.06172839506172839,14.814814814814813,0)" xlink:href="#az"/><use transform="matrix(0.06172839506172839,0,0,0.06172839506172839,27.160493827160494,0)" xlink:href="#aA"/></g><path fill="#3a414a" d="M240 0l2-218c-23 76-54 145-80 218h-23L58-218 59 0H30v-248h44l77 211c21-75 51-140 76-211h43V0h-30" id="aB"/><path fill="#3a414a" d="M24-231v-30h32v30H24zM24 0v-190h32V0H24" id="aC"/><path fill="#3a414a" d="M59-47c-2 24 18 29 38 22v24C64 9 27 4 27-40v-127H5v-23h24l9-43h21v43h35v23H59v120" id="aD"/><path fill="#3a414a" d="M96-169c-40 0-48 33-48 73s9 75 48 75c24 0 41-14 43-38l32 2c-6 37-31 61-74 61-59 0-76-41-82-99-10-93 101-131 147-64 4 7 5 14 7 22l-32 3c-4-21-16-35-41-35" id="aE"/><path fill="#3a414a" d="M106-169C34-169 62-67 57 0H25v-261h32l-1 103c12-21 28-36 61-36 89 0 53 116 60 194h-32v-121c2-32-8-49-39-48" id="aF"/><path fill="#3a414a" d="M100-194c63 0 86 42 84 106H49c0 40 14 67 53 68 26 1 43-12 49-29l28 8c-11 28-37 45-77 45C44 4 14-33 15-96c1-61 26-98 85-98zm52 81c6-60-76-77-97-28-3 7-6 17-6 28h103" id="aG"/><path fill="#3a414a" d="M24 0v-261h32V0H24" id="aH"/><g id="v"><use transform="matrix(0.06172839506172839,0,0,0.06172839506172839,0,0)" xlink:href="#aB"/><use transform="matrix(0.06172839506172839,0,0,0.06172839506172839,18.456790123456788,0)" xlink:href="#aC"/><use transform="matrix(0.06172839506172839,0,0,0.06172839506172839,23.33333333333333,0)" xlink:href="#aD"/><use transform="matrix(0.06172839506172839,0,0,0.06172839506172839,29.506172839506167,0)" xlink:href="#aE"/><use transform="matrix(0.06172839506172839,0,0,0.06172839506172839,40.61728395061728,0)" xlink:href="#aF"/><use transform="matrix(0.06172839506172839,0,0,0.06172839506172839,52.962962962962955,0)" xlink:href="#aG"/><use transform="matrix(0.06172839506172839,0,0,0.06172839506172839,65.30864197530863,0)" xlink:href="#aH"/><use transform="matrix(0.06172839506172839,0,0,0.06172839506172839,70.18518518518518,0)" xlink:href="#aH"/></g><path fill="#3a414a" d="M101-251c82-7 93 87 43 132L82-64C71-53 59-42 53-27h129V0H18c2-99 128-94 128-182 0-28-16-43-45-43s-46 15-49 41l-32-3c6-41 34-60 81-64" id="aI"/><path fill="#3a414a" d="M101-251c68 0 85 55 85 127S166 4 100 4C33 4 14-52 14-124c0-73 17-127 87-127zm-1 229c47 0 54-49 54-102s-4-102-53-102c-51 0-55 48-55 102 0 53 5 102 54 102" id="aJ"/><g id="w"><use transform="matrix(0.06172839506172839,0,0,0.06172839506172839,0,0)" xlink:href="#aI"/><use transform="matrix(0.06172839506172839,0,0,0.06172839506172839,12.345679012345679,0)" xlink:href="#aJ"/><use transform="matrix(0.06172839506172839,0,0,0.06172839506172839,24.691358024691358,0)" xlink:href="#aI"/><use transform="matrix(0.06172839506172839,0,0,0.06172839506172839,37.03703703703704,0)" xlink:href="#aI"/></g></defs></g></svg>